<?xml version="1.0" encoding="UTF-8"?>
<svg width="100px" height="100px" viewBox="0 0 100 100" version="1.1" xmlns="http://www.w3.org/2000/svg" xmlns:xlink="http://www.w3.org/1999/xlink">
    <title>编组 11</title>
    <defs>
        <rect id="path-1" x="0" y="0" width="100" height="100" rx="24"></rect>
    </defs>
    <g id="页面-1" stroke="none" stroke-width="1" fill="none" fill-rule="evenodd">
        <g id="桌面备份-3" transform="translate(-764.000000, -110.000000)">
            <g id="编组-16" transform="translate(155.000000, 110.000000)">
                <g id="编组-11" transform="translate(609.000000, 0.000000)">
                    <g id="编组-14备份">
                        <g id="编组-12">
                            <rect id="矩形备份-24" x="0" y="0" width="100" height="100" rx="22"></rect>
                            <g id="编组-13">
                                <mask id="mask-2" fill="white">
                                    <use xlink:href="#path-1"></use>
                                </mask>
                                <use id="矩形备份-24" fill="#FFFFFF" xlink:href="#path-1"></use>
                                <rect id="矩形备份-21" fill="#FF5B00" mask="url(#mask-2)" x="53" y="53" width="42" height="42" rx="21"></rect>
                                <rect id="矩形备份-34" fill="#4E5C62" opacity="0.889718192" mask="url(#mask-2)" x="5" y="53" width="42" height="42" rx="21"></rect>
                                <rect id="矩形备份-33" fill="#CFDAE9" mask="url(#mask-2)" x="5" y="5" width="90" height="42" rx="21"></rect>
                            </g>
                        </g>
                        <path d="M26,64 C26.9204746,64 27.6666667,64.7461921 27.6666667,65.6666667 L27.666,72.333 L34.3333333,72.3333333 C35.2538079,72.3333333 36,73.0795254 36,74 C36,74.9204746 35.2538079,75.6666667 34.3333333,75.6666667 L27.666,75.666 L27.6666667,82.3333333 C27.6666667,83.2538079 26.9204746,84 26,84 C25.0795254,84 24.3333333,83.2538079 24.3333333,82.3333333 L24.333,75.666 L17.6666667,75.6666667 C16.7461921,75.6666667 16,74.9204746 16,74 C16,73.0795254 16.7461921,72.3333333 17.6666667,72.3333333 L24.333,72.333 L24.3333333,65.6666667 C24.3333333,64.7461921 25.0795254,64 26,64 Z" id="形状结合" fill="#FFFFFF"></path>
                        <g id="编组-10" transform="translate(64.000000, 67.000000)" fill="#FFFFFF">
                            <path d="M18.3333333,11 C19.2538079,11 20,11.7461921 20,12.6666667 C20,13.5871412 19.2538079,14.3333333 18.3333333,14.3333333 L1.66666667,14.3333333 C0.746192084,14.3333333 1.12725625e-16,13.5871412 0,12.6666667 C-1.12725625e-16,11.7461921 0.746192084,11 1.66666667,11 L18.3333333,11 Z M18.3333333,1.51212376e-13 C19.2538079,1.4971102e-13 20,0.746192084 20,1.66666667 C20,2.58714125 19.2538079,3.33333333 18.3333333,3.33333333 L1.66666667,3.33333333 C0.746192084,3.33333333 1.12725625e-16,2.58714125 0,1.66666667 C-1.12725625e-16,0.746192084 0.746192084,1.51381464e-13 1.66666667,1.51212376e-13 L18.3333333,1.51212376e-13 Z" id="形状结合"></path>
                        </g>
                    </g>
                    <path d="M74.742,39.468 C79.422,39.468 83.526,37.02 85.614,33.312 L82.698,31.656 C81.258,34.392 78.198,36.192 74.742,36.192 C68.838,36.192 64.878,31.908 64.878,26.4 C64.878,20.856 68.838,16.572 74.742,16.572 C78.198,16.572 81.258,18.372 82.698,21.144 L85.614,19.452 C83.49,15.744 79.386,13.332 74.742,13.332 C67.038,13.332 61.566,19.128 61.566,26.4 C61.566,33.636 67.038,39.468 74.742,39.468 Z" id="C" fill="#354146" fill-rule="nonzero"></path>
                </g>
            </g>
        </g>
    </g>
</svg>